<?xml version="1.0" encoding="UTF-8" standalone="no"?>
<!DOCTYPE svg PUBLIC "-//W3C//DTD SVG 1.1//EN" "http://www.w3.org/Graphics/SVG/1.1/DTD/svg11.dtd">
<svg version="1.1" xmlns="http://www.w3.org/2000/svg" xmlns:xlink="http://www.w3.org/1999/xlink" preserveAspectRatio="xMidYMid meet" viewBox="0 0 100 100" width="100%" height="100%"><defs><path d="M59.69 51.59C59.69 67.29 46.93 80.04 31.23 80.04C15.52 80.04 2.76 67.29 2.76 51.59C2.76 35.89 15.52 23.14 31.23 23.14C46.93 23.14 59.69 35.89 59.69 51.59Z" id="l2yPOHtkkl"></path><path d="M17.99 45.37C17.99 48.27 15.64 50.63 12.76 50.63C9.87 50.63 7.53 48.27 7.53 45.37C7.53 42.46 9.87 40.1 12.76 40.1C15.64 40.1 17.99 42.46 17.99 45.37Z" id="i19zP0mHN0"></path><path d="M34.02 65.27C34.02 67.28 32.35 68.9 30.31 68.9C28.26 68.9 26.6 67.28 26.6 65.27C26.6 63.27 28.26 61.65 30.31 61.65C32.35 61.65 34.02 63.27 34.02 65.27Z" id="a6GsZ14GxB"></path><path d="M47.65 43.66C47.65 47.51 44.06 50.63 39.64 50.63C35.22 50.63 31.63 47.51 31.63 43.66C31.63 39.81 35.22 36.69 39.64 36.69C44.06 36.69 47.65 39.81 47.65 43.66Z" id="a8pSwSdvJ"></path><path d="M43.67 59.26C43.67 60.32 42.9 61.18 41.95 61.18C41.01 61.18 40.24 60.32 40.24 59.26C40.24 58.2 41.01 57.35 41.95 57.35C42.9 57.35 43.67 58.2 43.67 59.26Z" id="e23ClSk0sX"></path><path d="M26.6 34.1C26.6 35.16 25.83 36.02 24.89 36.02C23.94 36.02 23.17 35.16 23.17 34.1C23.17 33.04 23.94 32.19 24.89 32.19C25.83 32.19 26.6 33.04 26.6 34.1Z" id="a2MUS9xyrV"></path><path d="M25.4 54.15C25.4 55.2 24.63 56.06 23.68 56.06C22.74 56.06 21.97 55.2 21.97 54.15C21.97 53.09 22.74 52.23 23.68 52.23C24.63 52.23 25.4 53.09 25.4 54.15Z" id="cuPu2Pfe"></path><path d="M55.87 52.23C55.87 53.29 55.1 54.15 54.15 54.15C53.2 54.15 52.44 53.29 52.44 52.23C52.44 51.17 53.2 50.32 54.15 50.32C55.1 50.32 55.87 51.17 55.87 52.23Z" id="dcGzxfUJH"></path><path d="M41.95 75.33C41.95 76.39 41.18 77.24 40.24 77.24C39.29 77.24 38.52 76.39 38.52 75.33C38.52 74.27 39.29 73.41 40.24 73.41C41.18 73.41 41.95 74.27 41.95 75.33Z" id="aKrklDGsZ"></path><path d="M44.94 29.58C44.94 30.63 44.17 31.49 43.22 31.49C42.27 31.49 41.5 30.63 41.5 29.58C41.5 28.52 42.27 27.66 43.22 27.66C44.17 27.66 44.94 28.52 44.94 29.58Z" id="a2iSHFyzD"></path><path d="M15.62 68.9C15.62 69.96 14.85 70.81 13.9 70.81C12.95 70.81 12.19 69.96 12.19 68.9C12.19 67.84 12.95 66.98 13.9 66.98C14.85 66.98 15.62 67.84 15.62 68.9Z" id="chBYc0jc3"></path><path d="M73.74 25.56L77.08 26.03L74.67 28.31L75.23 31.52L72.25 30L69.28 31.52L69.84 28.31L67.43 26.03L70.77 25.56L72.25 22.64L73.74 25.56Z" id="ardVPO6av"></path><path d="M92.68 45.64L96.01 46.1L93.6 48.38L94.17 51.59L91.19 50.07L88.21 51.59L88.78 48.38L86.37 46.1L89.7 45.64L91.19 42.71L92.68 45.64Z" id="e1mEmOdtV9"></path><path d="M75.37 62.88L78.7 63.35L76.29 65.62L76.86 68.84L73.88 67.32L70.9 68.84L71.47 65.62L69.06 63.35L72.39 62.88L73.88 59.96L75.37 62.88Z" id="bbTQnvCle"></path></defs><g><g><g><g><g></g><use xlink:href="#l2yPOHtkkl" opacity="1" fill="#ebebeb" fill-opacity="1"></use><g><use xlink:href="#l2yPOHtkkl" opacity="1" fill-opacity="0" stroke="#323131" stroke-width="0" stroke-opacity="1"></use></g></g><g><g></g><use xlink:href="#i19zP0mHN0" opacity="1" fill="#9a9a9a" fill-opacity="0.98"></use></g><g><g></g><use xlink:href="#a6GsZ14GxB" opacity="1" fill="#9a9a9a" fill-opacity="0.98"></use></g><g><g></g><use xlink:href="#a8pSwSdvJ" opacity="1" fill="#9a9a9a" fill-opacity="0.98"></use></g><g><g></g><use xlink:href="#e23ClSk0sX" opacity="1" fill="#9a9a9a" fill-opacity="0.98"></use></g><g><g></g><use xlink:href="#a2MUS9xyrV" opacity="1" fill="#9a9a9a" fill-opacity="0.98"></use></g><g><g></g><use xlink:href="#cuPu2Pfe" opacity="1" fill="#9a9a9a" fill-opacity="0.98"></use></g><g><g></g><use xlink:href="#dcGzxfUJH" opacity="1" fill="#9a9a9a" fill-opacity="0.98"></use></g><g><g></g><use xlink:href="#aKrklDGsZ" opacity="1" fill="#9a9a9a" fill-opacity="0.98"></use></g><g><g></g><use xlink:href="#a2iSHFyzD" opacity="1" fill="#9a9a9a" fill-opacity="0.98"></use></g><g><g></g><use xlink:href="#chBYc0jc3" opacity="1" fill="#9a9a9a" fill-opacity="0.98"></use></g></g><g><use xlink:href="#ardVPO6av" opacity="1" fill="#fbf73a" fill-opacity="1"></use></g><g><use xlink:href="#e1mEmOdtV9" opacity="1" fill="#fbf73a" fill-opacity="1"></use></g><g><use xlink:href="#bbTQnvCle" opacity="1" fill="#fbf73a" fill-opacity="1"></use></g></g></g></svg>