<?xml version="1.0" encoding="UTF-8" standalone="no"?>
<!DOCTYPE svg PUBLIC "-//W3C//DTD SVG 1.1//EN" "http://www.w3.org/Graphics/SVG/1.1/DTD/svg11.dtd">
<svg version="1.1" xmlns="http://www.w3.org/2000/svg" xmlns:xlink="http://www.w3.org/1999/xlink" preserveAspectRatio="xMidYMid meet" viewBox="0 0 100 100" width="100%" height="100%"><defs><path d="M97.78 57.08C97.78 63.48 90.66 68.69 81.9 68.69C73.14 68.69 66.03 63.48 66.03 57.08C66.03 50.67 73.14 45.46 81.9 45.46C90.66 45.46 97.78 50.67 97.78 57.08Z" id="d34aVhRtQA"></path><path d="M73.92 31.59C73.92 43.01 64.13 52.29 52.07 52.29C40.01 52.29 30.22 43.01 30.22 31.59C30.22 20.17 40.01 10.89 52.07 10.89C64.13 10.89 73.92 20.17 73.92 31.59Z" id="a1HVbVDIoN"></path><path d="M88.36 41.96C88.36 48.37 81.25 53.57 72.49 53.57C63.73 53.57 56.62 48.37 56.62 41.96C56.62 35.55 63.73 30.34 72.49 30.34C81.25 30.34 88.36 35.55 88.36 41.96Z" id="bc4c50PqG"></path><path d="M76.68 56.52C76.68 62.93 69.57 68.13 60.81 68.13C52.05 68.13 44.93 62.93 44.93 56.52C44.93 50.11 52.05 44.91 60.81 44.91C69.57 44.91 76.68 50.11 76.68 56.52Z" id="iiTrMODX9"></path><path d="M38.14 52.29C38.14 58.7 30.05 63.9 20.08 63.9C10.11 63.9 2.02 58.7 2.02 52.29C2.02 45.88 10.11 40.68 20.08 40.68C30.05 40.68 38.14 45.88 38.14 52.29Z" id="a267Uu6g3N"></path><path d="M44.64 41.96C44.64 48.37 36.55 53.57 26.58 53.57C16.61 53.57 8.52 48.37 8.52 41.96C8.52 35.55 16.61 30.34 26.58 30.34C36.55 30.34 44.64 35.55 44.64 41.96Z" id="a1cqcZYMRp"></path></defs><g><g><g><use xlink:href="#d34aVhRtQA" opacity="1" fill="#ebebeb" fill-opacity="1"></use></g><g><use xlink:href="#a1HVbVDIoN" opacity="1" fill="#fbf73a" fill-opacity="1"></use></g><g><use xlink:href="#bc4c50PqG" opacity="1" fill="#ebebeb" fill-opacity="1"></use></g><g><use xlink:href="#iiTrMODX9" opacity="1" fill="#ebebeb" fill-opacity="1"></use></g><g><use xlink:href="#a267Uu6g3N" opacity="1" fill="#ebebeb" fill-opacity="1"></use></g><g><use xlink:href="#a1cqcZYMRp" opacity="1" fill="#ebebeb" fill-opacity="1"></use></g></g></g></svg>