<?xml version="1.0" encoding="UTF-8" standalone="no"?>
<!DOCTYPE svg PUBLIC "-//W3C//DTD SVG 1.1//EN" "http://www.w3.org/Graphics/SVG/1.1/DTD/svg11.dtd">
<svg version="1.1" xmlns="http://www.w3.org/2000/svg" xmlns:xlink="http://www.w3.org/1999/xlink" preserveAspectRatio="xMidYMid meet" viewBox="0 0 100 100" width="100%" height="100%"><defs><path d="M50.01 45.38C50.01 57.72 39.29 67.73 26.09 67.73C12.89 67.73 2.17 57.72 2.17 45.38C2.17 33.05 12.89 23.03 26.09 23.03C39.29 23.03 50.01 33.05 50.01 45.38Z" id="g5EAhEbP7y"></path><path d="M14.96 40.49C14.96 42.78 13 44.63 10.57 44.63C8.14 44.63 6.17 42.78 6.17 40.49C6.17 38.21 8.14 36.36 10.57 36.36C13 36.36 14.96 38.21 14.96 40.49Z" id="a3kdd863ao"></path><path d="M28.44 56.13C28.44 57.7 27.04 58.98 25.32 58.98C23.6 58.98 22.2 57.7 22.2 56.13C22.2 54.56 23.6 53.28 25.32 53.28C27.04 53.28 28.44 54.56 28.44 56.13Z" id="a1CR88Hx7R"></path><path d="M39.9 39.15C39.9 42.18 36.88 44.63 33.16 44.63C29.45 44.63 26.43 42.18 26.43 39.15C26.43 36.13 29.45 33.68 33.16 33.68C36.88 33.68 39.9 36.13 39.9 39.15Z" id="c5hV0tdl4m"></path><path d="M36.55 51.41C36.55 52.24 35.9 52.91 35.11 52.91C34.31 52.91 33.66 52.24 33.66 51.41C33.66 50.58 34.31 49.9 35.11 49.9C35.9 49.9 36.55 50.58 36.55 51.41Z" id="atVHYT39i"></path><path d="M22.2 31.64C22.2 32.47 21.56 33.15 20.76 33.15C19.97 33.15 19.32 32.47 19.32 31.64C19.32 30.81 19.97 30.14 20.76 30.14C21.56 30.14 22.2 30.81 22.2 31.64Z" id="b2AxMILsnc"></path><path d="M21.2 47.39C21.2 48.22 20.55 48.89 19.75 48.89C18.96 48.89 18.31 48.22 18.31 47.39C18.31 46.56 18.96 45.88 19.75 45.88C20.55 45.88 21.2 46.56 21.2 47.39Z" id="d1kl1ImcGV"></path><path d="M46.8 45.88C46.8 46.71 46.15 47.39 45.36 47.39C44.56 47.39 43.92 46.71 43.92 45.88C43.92 45.05 44.56 44.38 45.36 44.38C46.15 44.38 46.8 45.05 46.8 45.88Z" id="aAwN0Fckk"></path><path d="M35.11 64.03C35.11 64.86 34.46 65.53 33.66 65.53C32.87 65.53 32.22 64.86 32.22 64.03C32.22 63.2 32.87 62.52 33.66 62.52C34.46 62.52 35.11 63.2 35.11 64.03Z" id="ew8cGMONx"></path><path d="M37.61 28.09C37.61 28.92 36.97 29.59 36.17 29.59C35.38 29.59 34.73 28.92 34.73 28.09C34.73 27.26 35.38 26.59 36.17 26.59C36.97 26.59 37.61 27.26 37.61 28.09Z" id="b3UWlzCwr"></path><path d="M12.97 58.98C12.97 59.81 12.33 60.48 11.53 60.48C10.73 60.48 10.09 59.81 10.09 58.98C10.09 58.15 10.73 57.47 11.53 57.47C12.33 57.47 12.97 58.15 12.97 58.98Z" id="a2IzWluWfJ"></path><path d="M52.93 68.44C52.93 73.71 45.34 77.99 35.99 77.99C26.64 77.99 19.05 73.71 19.05 68.44C19.05 63.17 26.64 58.89 35.99 58.89C45.34 58.89 52.93 63.17 52.93 68.44Z" id="a5ayJskQ08"></path><path d="M62.58 60.16C62.58 65.43 54.99 69.71 45.65 69.71C36.3 69.71 28.71 65.43 28.71 60.16C28.71 54.89 36.3 50.61 45.65 50.61C54.99 50.61 62.58 54.89 62.58 60.16Z" id="b1txppD3ZB"></path><path d="M83.89 71.24C83.89 76.51 76.3 80.79 66.95 80.79C57.6 80.79 50.01 76.51 50.01 71.24C50.01 65.97 57.6 61.69 66.95 61.69C76.3 61.69 83.89 65.97 83.89 71.24Z" id="b7umalKzEx"></path><path d="M95.27 60.81C95.27 66.09 87.68 70.36 78.33 70.36C68.98 70.36 61.39 66.09 61.39 60.81C61.39 55.54 68.98 51.27 78.33 51.27C87.68 51.27 95.27 55.54 95.27 60.81Z" id="aaX6aaIbg"></path><path d="M65.27 79.26C65.27 84.53 57.68 88.81 48.33 88.81C38.98 88.81 31.39 84.53 31.39 79.26C31.39 73.99 38.98 69.71 48.33 69.71C57.68 69.71 65.27 73.99 65.27 79.26Z" id="b1pevBvN1l"></path><path d="M98.41 74C97.72 80.5 89.61 85.17 80.3 84.42C70.99 83.67 63.99 77.78 64.67 71.28C65.35 64.78 73.46 60.11 82.77 60.85C92.08 61.6 99.09 67.49 98.41 74Z" id="c1dz9mxpLt"></path><path d="M76.13 54.93C76.13 60.2 68.54 64.48 59.19 64.48C49.84 64.48 42.25 60.2 42.25 54.93C42.25 49.66 49.84 45.38 59.19 45.38C68.54 45.38 76.13 49.66 76.13 54.93Z" id="c4SqIGbIgV"></path><path d="M79.98 80.79C79.98 86.06 72.39 90.34 63.04 90.34C53.69 90.34 46.1 86.06 46.1 80.79C46.1 75.52 53.69 71.24 63.04 71.24C72.39 71.24 79.98 75.52 79.98 80.79Z" id="a2pDWevLWW"></path><path d="M61.82 24.94L64.62 25.31L62.6 27.09L63.08 29.62L60.57 28.42L58.07 29.62L58.55 27.09L56.52 25.31L59.32 24.94L60.57 22.64L61.82 24.94Z" id="a25DmKalX"></path><path d="M81.78 37.42L84.58 37.79L82.55 39.57L83.03 42.1L80.52 40.91L78.02 42.1L78.5 39.57L76.47 37.79L79.27 37.42L80.52 35.12L81.78 37.42Z" id="b2gEYym258"></path></defs><g><g><g><g><g></g><use xlink:href="#g5EAhEbP7y" opacity="1" fill="#ebebeb" fill-opacity="1"></use><g><use xlink:href="#g5EAhEbP7y" opacity="1" fill-opacity="0" stroke="#323131" stroke-width="0" stroke-opacity="1"></use></g></g><g><g></g><use xlink:href="#a3kdd863ao" opacity="1" fill="#9b9b9b" fill-opacity="0.98"></use></g><g><g></g><use xlink:href="#a1CR88Hx7R" opacity="1" fill="#9a9a9a" fill-opacity="0.98"></use></g><g><g></g><use xlink:href="#c5hV0tdl4m" opacity="1" fill="#9a9a9a" fill-opacity="0.98"></use></g><g><g></g><use xlink:href="#atVHYT39i" opacity="1" fill="#9a9a9a" fill-opacity="0.98"></use></g><g><g></g><use xlink:href="#b2AxMILsnc" opacity="1" fill="#9a9a9a" fill-opacity="0.98"></use></g><g><g></g><use xlink:href="#d1kl1ImcGV" opacity="1" fill="#9a9a9a" fill-opacity="0.98"></use></g><g><g></g><use xlink:href="#aAwN0Fckk" opacity="1" fill="#9a9a9a" fill-opacity="0.98"></use></g><g><g></g><use xlink:href="#ew8cGMONx" opacity="1" fill="#9a9a9a" fill-opacity="0.98"></use></g><g><g></g><use xlink:href="#b3UWlzCwr" opacity="1" fill="#9a9a9a" fill-opacity="0.98"></use></g><g><g></g><use xlink:href="#a2IzWluWfJ" opacity="1" fill="#9a9a9a" fill-opacity="0.98"></use></g></g><g><use xlink:href="#a5ayJskQ08" opacity="1" fill="#c6c6c6" fill-opacity="1"></use></g><g><use xlink:href="#b1txppD3ZB" opacity="1" fill="#c6c6c6" fill-opacity="1"></use></g><g><use xlink:href="#b7umalKzEx" opacity="1" fill="#c6c6c6" fill-opacity="1"></use></g><g><use xlink:href="#aaX6aaIbg" opacity="1" fill="#c6c6c6" fill-opacity="1"></use></g><g><use xlink:href="#b1pevBvN1l" opacity="1" fill="#c6c6c6" fill-opacity="1"></use></g><g><use xlink:href="#c1dz9mxpLt" opacity="1" fill="#c6c6c6" fill-opacity="1"></use></g><g><use xlink:href="#c4SqIGbIgV" opacity="1" fill="#c6c6c6" fill-opacity="1"></use></g><g><use xlink:href="#a2pDWevLWW" opacity="1" fill="#c6c6c6" fill-opacity="1"></use></g><g><use xlink:href="#a25DmKalX" opacity="1" fill="#fbf73a" fill-opacity="1"></use></g><g><use xlink:href="#b2gEYym258" opacity="1" fill="#fbf73a" fill-opacity="1"></use></g></g></g></svg>