<?xml version="1.0" encoding="UTF-8" standalone="no"?>
<!DOCTYPE svg PUBLIC "-//W3C//DTD SVG 1.1//EN" "http://www.w3.org/Graphics/SVG/1.1/DTD/svg11.dtd">
<svg version="1.1" xmlns="http://www.w3.org/2000/svg" xmlns:xlink="http://www.w3.org/1999/xlink" preserveAspectRatio="xMidYMid meet" viewBox="0 0 100 100" width="100%" height="100%"><defs><path d="M43.03 29.96C43.03 36.37 33.86 41.58 22.56 41.58C11.27 41.58 2.1 36.37 2.1 29.96C2.1 23.55 11.27 18.35 22.56 18.35C33.86 18.35 43.03 23.55 43.03 29.96Z" id="d8DwZH12Y"></path><path d="M54.7 19.9C54.7 26.31 45.53 31.51 34.23 31.51C22.94 31.51 13.77 26.31 13.77 19.9C13.77 13.49 22.94 8.28 34.23 8.28C45.53 8.28 54.7 13.49 54.7 19.9Z" id="cTZOVoCsK"></path><path d="M80.44 33.37C80.44 39.78 71.27 44.98 59.97 44.98C48.68 44.98 39.51 39.78 39.51 33.37C39.51 26.96 48.68 21.76 59.97 21.76C71.27 21.76 80.44 26.96 80.44 33.37Z" id="d15Lm6XNKU"></path><path d="M94.19 20.69C94.19 27.1 85.02 32.31 73.73 32.31C62.43 32.31 53.26 27.1 53.26 20.69C53.26 14.28 62.43 9.08 73.73 9.08C85.02 9.08 94.19 14.28 94.19 20.69Z" id="a13ooIu7g6"></path><path d="M57.94 43.12C57.94 49.53 48.77 54.74 37.47 54.74C26.18 54.74 17.01 49.53 17.01 43.12C17.01 36.71 26.18 31.51 37.47 31.51C48.77 31.51 57.94 36.71 57.94 43.12Z" id="b3eq6917Zh"></path><path d="M97.98 36.72C97.16 44.63 87.36 50.31 76.11 49.4C64.86 48.49 56.4 41.33 57.22 33.42C58.04 25.51 67.84 19.83 79.09 20.74C90.34 21.65 98.8 28.81 97.98 36.72Z" id="c14h99k8RL"></path><path d="M71.07 13.54C71.07 19.95 61.9 25.15 50.6 25.15C39.31 25.15 30.14 19.95 30.14 13.54C30.14 7.13 39.31 1.93 50.6 1.93C61.9 1.93 71.07 7.13 71.07 13.54Z" id="b10hvOaTfg"></path><path d="M75.71 44.98C75.71 51.39 66.54 56.6 55.25 56.6C43.95 56.6 34.78 51.39 34.78 44.98C34.78 38.57 43.95 33.37 55.25 33.37C66.54 33.37 75.71 38.57 75.71 44.98Z" id="es7yhxFfY"></path><path d="M22.26 60.75C22.26 63.17 20.16 65.13 17.58 65.13C15 65.13 12.91 63.17 12.91 60.75C12.91 58.33 15 56.36 17.58 52.67C20.16 56.36 22.26 58.33 22.26 60.75Z" id="a1suNCLOe"></path><path d="M82.27 61.87C82.27 64.29 80.18 66.25 77.6 66.25C75.02 66.25 72.93 64.29 72.93 61.87C72.93 59.44 75.02 57.48 77.6 53.79C80.18 57.48 82.27 59.44 82.27 61.87Z" id="diZkaW6Rt"></path><path d="M65.14 82.86C65.14 85.29 63.05 87.25 60.47 87.25C57.89 87.25 55.8 85.29 55.8 82.86C55.8 80.44 57.89 78.48 60.47 74.79C63.05 78.48 65.14 80.44 65.14 82.86Z" id="aQ9elQFRk"></path><path d="M51.81 68.55C51.81 70.97 49.72 72.94 47.14 72.94C44.56 72.94 42.47 70.97 42.47 68.55C42.47 66.13 44.56 64.17 47.14 60.47C49.72 64.17 51.81 66.13 51.81 68.55Z" id="a1wBBMfljP"></path><path d="M32.51 82.28C32.51 84.7 30.42 86.67 27.84 86.67C25.26 86.67 23.16 84.7 23.16 82.28C23.16 79.86 25.26 77.9 27.84 74.2C30.42 77.9 32.51 79.86 32.51 82.28Z" id="aUADiZw1Q"></path><path d="M89.41 81.76C89.41 84.18 87.32 86.14 84.74 86.14C82.16 86.14 80.07 84.18 80.07 81.76C80.07 79.33 82.16 77.37 84.74 73.68C87.32 77.37 89.41 79.33 89.41 81.76Z" id="f1NFtBmJL"></path></defs><g><g><g><use xlink:href="#d8DwZH12Y" opacity="1" fill="#c6c6c6" fill-opacity="1"></use></g><g><use xlink:href="#cTZOVoCsK" opacity="1" fill="#c6c6c6" fill-opacity="1"></use></g><g><use xlink:href="#d15Lm6XNKU" opacity="1" fill="#c6c6c6" fill-opacity="1"></use></g><g><use xlink:href="#a13ooIu7g6" opacity="1" fill="#c6c6c6" fill-opacity="1"></use></g><g><use xlink:href="#b3eq6917Zh" opacity="1" fill="#c6c6c6" fill-opacity="1"></use></g><g><use xlink:href="#c14h99k8RL" opacity="1" fill="#c6c6c6" fill-opacity="1"></use></g><g><use xlink:href="#b10hvOaTfg" opacity="1" fill="#c6c6c6" fill-opacity="1"></use></g><g><use xlink:href="#es7yhxFfY" opacity="1" fill="#c6c6c6" fill-opacity="1"></use></g><g><use xlink:href="#a1suNCLOe" opacity="1" fill="#2f6196" fill-opacity="1"></use><g><use xlink:href="#a1suNCLOe" opacity="1" fill-opacity="0" stroke="#3b0416" stroke-width="0" stroke-opacity="1"></use></g></g><g><use xlink:href="#diZkaW6Rt" opacity="1" fill="#2f6196" fill-opacity="1"></use><g><use xlink:href="#diZkaW6Rt" opacity="1" fill-opacity="0" stroke="#3b0416" stroke-width="0" stroke-opacity="1"></use></g></g><g><use xlink:href="#aQ9elQFRk" opacity="1" fill="#2f6196" fill-opacity="1"></use><g><use xlink:href="#aQ9elQFRk" opacity="1" fill-opacity="0" stroke="#3b0416" stroke-width="0" stroke-opacity="1"></use></g></g><g><use xlink:href="#a1wBBMfljP" opacity="1" fill="#2f6196" fill-opacity="1"></use><g><use xlink:href="#a1wBBMfljP" opacity="1" fill-opacity="0" stroke="#3b0416" stroke-width="0" stroke-opacity="1"></use></g></g><g><use xlink:href="#aUADiZw1Q" opacity="1" fill="#2f6196" fill-opacity="1"></use><g><use xlink:href="#aUADiZw1Q" opacity="1" fill-opacity="0" stroke="#3b0416" stroke-width="0" stroke-opacity="1"></use></g></g><g><use xlink:href="#f1NFtBmJL" opacity="1" fill="#2f6196" fill-opacity="1"></use><g><use xlink:href="#f1NFtBmJL" opacity="1" fill-opacity="0" stroke="#3b0416" stroke-width="0" stroke-opacity="1"></use></g></g></g></g></svg>