<?xml version="1.0" encoding="UTF-8" standalone="no"?>
<!DOCTYPE svg PUBLIC "-//W3C//DTD SVG 1.1//EN" "http://www.w3.org/Graphics/SVG/1.1/DTD/svg11.dtd">
<svg version="1.1" xmlns="http://www.w3.org/2000/svg" xmlns:xlink="http://www.w3.org/1999/xlink" preserveAspectRatio="xMidYMid meet" viewBox="0 0 100 100" width="100%" height="100%"><defs><path d="M90.71 34.42C90.71 45.85 80.92 55.12 68.86 55.12C56.8 55.12 47.01 45.85 47.01 34.42C47.01 23 56.8 13.72 68.86 13.72C80.92 13.72 90.71 23 90.71 34.42Z" id="azn3EUBpF"></path><path d="M35.62 49.39C35.62 54.21 28.93 58.12 20.69 58.12C12.45 58.12 5.76 54.21 5.76 49.39C5.76 44.57 12.45 40.65 20.69 40.65C28.93 40.65 35.62 44.57 35.62 49.39Z" id="aYTt3Oh1J"></path><path d="M44.14 41.82C44.14 46.64 37.45 50.55 29.21 50.55C20.97 50.55 14.28 46.64 14.28 41.82C14.28 37 20.97 33.08 29.21 33.08C37.45 33.08 44.14 37 44.14 41.82Z" id="cynARLWsz"></path><path d="M62.92 51.95C62.92 56.77 56.23 60.68 47.99 60.68C39.75 60.68 33.06 56.77 33.06 51.95C33.06 47.13 39.75 43.22 47.99 43.22C56.23 43.22 62.92 47.13 62.92 51.95Z" id="a1Qd5rG4Gv"></path><path d="M72.95 42.42C72.95 47.24 66.26 51.15 58.02 51.15C49.78 51.15 43.09 47.24 43.09 42.42C43.09 37.6 49.78 33.68 58.02 33.68C66.26 33.68 72.95 37.6 72.95 42.42Z" id="b4dOJGLdf3"></path><path d="M46.5 59.28C46.5 64.1 39.81 68.02 31.57 68.02C23.33 68.02 16.64 64.1 16.64 59.28C16.64 54.46 23.33 50.55 31.57 50.55C39.81 50.55 46.5 54.46 46.5 59.28Z" id="b2mhqbX45"></path><path d="M75.71 54.47C75.11 60.42 67.96 64.69 59.75 64C51.55 63.32 45.38 57.93 45.98 51.99C46.58 46.04 53.72 41.77 61.93 42.45C70.14 43.14 76.31 48.52 75.71 54.47Z" id="f4yc5drGAP"></path><path d="M56.08 37.03C56.08 41.85 49.39 45.77 41.15 45.77C32.91 45.77 26.22 41.85 26.22 37.03C26.22 32.21 32.91 28.3 41.15 28.3C49.39 28.3 56.08 32.21 56.08 37.03Z" id="b22D0QBxZb"></path><path d="M59.47 60.68C59.47 65.5 52.78 69.42 44.54 69.42C36.3 69.42 29.61 65.5 29.61 60.68C29.61 55.86 36.3 51.95 44.54 51.95C52.78 51.95 59.47 55.86 59.47 60.68Z" id="fE9wKNbBv"></path><path d="M20.47 72.54C20.47 74.36 18.94 75.84 17.06 75.84C15.18 75.84 13.65 74.36 13.65 72.54C13.65 70.72 15.18 69.24 17.06 66.46C18.94 69.24 20.47 70.72 20.47 72.54Z" id="adLqdz1z5"></path><path d="M64.25 73.38C64.25 75.2 62.73 76.68 60.84 76.68C58.96 76.68 57.43 75.2 57.43 73.38C57.43 71.56 58.96 70.08 60.84 67.3C62.73 70.08 64.25 71.56 64.25 73.38Z" id="a5pXxKcqN"></path><path d="M51.76 89.17C51.76 90.99 50.23 92.47 48.35 92.47C46.46 92.47 44.94 90.99 44.94 89.17C44.94 87.35 46.46 85.87 48.35 83.1C50.23 85.87 51.76 87.35 51.76 89.17Z" id="c10Nn7qST8"></path><path d="M42.03 78.41C42.03 80.23 40.51 81.7 38.62 81.7C36.74 81.7 35.21 80.23 35.21 78.41C35.21 76.59 36.74 75.11 38.62 72.33C40.51 75.11 42.03 76.59 42.03 78.41Z" id="fHgRj9fDG"></path><path d="M27.95 88.73C27.95 90.55 26.42 92.03 24.54 92.03C22.66 92.03 21.13 90.55 21.13 88.73C21.13 86.91 22.66 85.43 24.54 82.66C26.42 85.43 27.95 86.91 27.95 88.73Z" id="a4F5dAgFft"></path><path d="M69.46 88.34C69.46 90.16 67.94 91.63 66.05 91.63C64.17 91.63 62.64 90.16 62.64 88.34C62.64 86.52 64.17 85.04 66.05 82.26C67.94 85.04 69.46 86.52 69.46 88.34Z" id="b1ccKPPg1V"></path></defs><g><g><g><use xlink:href="#azn3EUBpF" opacity="1" fill="#fbf73a" fill-opacity="1"></use></g><g><use xlink:href="#aYTt3Oh1J" opacity="1" fill="#c6c6c6" fill-opacity="1"></use></g><g><use xlink:href="#cynARLWsz" opacity="1" fill="#c6c6c6" fill-opacity="1"></use></g><g><use xlink:href="#a1Qd5rG4Gv" opacity="1" fill="#c6c6c6" fill-opacity="1"></use></g><g><use xlink:href="#b4dOJGLdf3" opacity="1" fill="#c6c6c6" fill-opacity="1"></use></g><g><use xlink:href="#b2mhqbX45" opacity="1" fill="#c6c6c6" fill-opacity="1"></use></g><g><use xlink:href="#f4yc5drGAP" opacity="1" fill="#c6c6c6" fill-opacity="1"></use></g><g><use xlink:href="#b22D0QBxZb" opacity="1" fill="#c6c6c6" fill-opacity="1"></use></g><g><use xlink:href="#fE9wKNbBv" opacity="1" fill="#c6c6c6" fill-opacity="1"></use></g><g><use xlink:href="#adLqdz1z5" opacity="1" fill="#2f6196" fill-opacity="1"></use><g><use xlink:href="#adLqdz1z5" opacity="1" fill-opacity="0" stroke="#3b0416" stroke-width="0" stroke-opacity="1"></use></g></g><g><use xlink:href="#a5pXxKcqN" opacity="1" fill="#2f6196" fill-opacity="1"></use><g><use xlink:href="#a5pXxKcqN" opacity="1" fill-opacity="0" stroke="#3b0416" stroke-width="0" stroke-opacity="1"></use></g></g><g><use xlink:href="#c10Nn7qST8" opacity="1" fill="#2f6196" fill-opacity="1"></use><g><use xlink:href="#c10Nn7qST8" opacity="1" fill-opacity="0" stroke="#3b0416" stroke-width="0" stroke-opacity="1"></use></g></g><g><use xlink:href="#fHgRj9fDG" opacity="1" fill="#2f6196" fill-opacity="1"></use><g><use xlink:href="#fHgRj9fDG" opacity="1" fill-opacity="0" stroke="#3b0416" stroke-width="0" stroke-opacity="1"></use></g></g><g><use xlink:href="#a4F5dAgFft" opacity="1" fill="#2f6196" fill-opacity="1"></use><g><use xlink:href="#a4F5dAgFft" opacity="1" fill-opacity="0" stroke="#3b0416" stroke-width="0" stroke-opacity="1"></use></g></g><g><use xlink:href="#b1ccKPPg1V" opacity="1" fill="#2f6196" fill-opacity="1"></use><g><use xlink:href="#b1ccKPPg1V" opacity="1" fill-opacity="0" stroke="#3b0416" stroke-width="0" stroke-opacity="1"></use></g></g></g></g></svg>