<?xml version="1.0" encoding="UTF-8" standalone="no"?>
<!DOCTYPE svg PUBLIC "-//W3C//DTD SVG 1.1//EN" "http://www.w3.org/Graphics/SVG/1.1/DTD/svg11.dtd">
<svg version="1.1" xmlns="http://www.w3.org/2000/svg" xmlns:xlink="http://www.w3.org/1999/xlink" preserveAspectRatio="xMidYMid meet" viewBox="0 0 100 100" width="100%" height="100%"><defs><path d="M49.27 24.62C49.27 36.95 38.55 46.97 25.35 46.97C12.15 46.97 1.43 36.95 1.43 24.62C1.43 12.28 12.15 2.27 25.35 2.27C38.55 2.27 49.27 12.28 49.27 24.62Z" id="cdJjeZ2nr"></path><path d="M14.22 19.73C14.22 22.01 12.25 23.87 9.83 23.87C7.4 23.87 5.43 22.01 5.43 19.73C5.43 17.45 7.4 15.59 9.83 15.59C12.25 15.59 14.22 17.45 14.22 19.73Z" id="e3X7OeWzhB"></path><path d="M27.69 35.37C27.69 36.94 26.3 38.21 24.58 38.21C22.86 38.21 21.46 36.94 21.46 35.37C21.46 33.8 22.86 32.52 24.58 32.52C26.3 32.52 27.69 33.8 27.69 35.37Z" id="aa6EabsGf"></path><path d="M39.15 18.39C39.15 21.41 36.14 23.87 32.42 23.87C28.71 23.87 25.69 21.41 25.69 18.39C25.69 15.37 28.71 12.91 32.42 12.91C36.14 12.91 39.15 15.37 39.15 18.39Z" id="aOgfgIhXL"></path><path d="M35.81 30.64C35.81 31.47 35.16 32.15 34.37 32.15C33.57 32.15 32.92 31.47 32.92 30.64C32.92 29.81 33.57 29.14 34.37 29.14C35.16 29.14 35.81 29.81 35.81 30.64Z" id="byfgv55NH"></path><path d="M21.46 10.88C21.46 11.71 20.82 12.38 20.02 12.38C19.22 12.38 18.58 11.71 18.58 10.88C18.58 10.05 19.22 9.38 20.02 9.38C20.82 9.38 21.46 10.05 21.46 10.88Z" id="b9SZyO7vV"></path><path d="M20.45 26.63C20.45 27.46 19.81 28.13 19.01 28.13C18.21 28.13 17.57 27.46 17.57 26.63C17.57 25.8 18.21 25.12 19.01 25.12C19.81 25.12 20.45 25.8 20.45 26.63Z" id="a15liq5XSf"></path><path d="M46.06 25.12C46.06 25.95 45.41 26.63 44.62 26.63C43.82 26.63 43.17 25.95 43.17 25.12C43.17 24.29 43.82 23.62 44.62 23.62C45.41 23.62 46.06 24.29 46.06 25.12Z" id="c1hIhlGGA"></path><path d="M34.37 43.26C34.37 44.09 33.72 44.77 32.92 44.77C32.13 44.77 31.48 44.09 31.48 43.26C31.48 42.43 32.13 41.76 32.92 41.76C33.72 41.76 34.37 42.43 34.37 43.26Z" id="b6PhCL9h7"></path><path d="M36.87 7.33C36.87 8.16 36.23 8.83 35.43 8.83C34.63 8.83 33.99 8.16 33.99 7.33C33.99 6.5 34.63 5.82 35.43 5.82C36.23 5.82 36.87 6.5 36.87 7.33Z" id="a3M9NVC7ry"></path><path d="M12.23 38.21C12.23 39.04 11.59 39.72 10.79 39.72C9.99 39.72 9.35 39.04 9.35 38.21C9.35 37.38 9.99 36.71 10.79 36.71C11.59 36.71 12.23 37.38 12.23 38.21Z" id="a2LbG6tZb1"></path><path d="M52.18 47.67C52.18 52.95 44.59 57.22 35.25 57.22C25.9 57.22 18.31 52.95 18.31 47.67C18.31 42.4 25.9 38.13 35.25 38.13C44.59 38.13 52.18 42.4 52.18 47.67Z" id="f1LfExPdJF"></path><path d="M61.84 39.4C61.84 44.67 54.25 48.95 44.9 48.95C35.56 48.95 27.97 44.67 27.97 39.4C27.97 34.13 35.56 29.85 44.9 29.85C54.25 29.85 61.84 34.13 61.84 39.4Z" id="b4IPDpMmP5"></path><path d="M83.15 50.48C83.15 55.75 75.56 60.03 66.21 60.03C56.86 60.03 49.27 55.75 49.27 50.48C49.27 45.21 56.86 40.93 66.21 40.93C75.56 40.93 83.15 45.21 83.15 50.48Z" id="c3tcq6SZn"></path><path d="M94.53 40.05C94.53 45.32 86.94 49.6 77.59 49.6C68.24 49.6 60.65 45.32 60.65 40.05C60.65 34.78 68.24 30.5 77.59 30.5C86.94 30.5 94.53 34.78 94.53 40.05Z" id="d5hrB0qXVi"></path><path d="M64.53 58.49C64.53 63.77 56.94 68.04 47.59 68.04C38.24 68.04 30.65 63.77 30.65 58.49C30.65 53.22 38.24 48.95 47.59 48.95C56.94 48.95 64.53 53.22 64.53 58.49Z" id="b3wzWwWJem"></path><path d="M97.66 53.23C96.98 59.74 88.87 64.41 79.56 63.66C70.25 62.91 63.25 57.02 63.93 50.52C64.61 44.01 72.72 39.34 82.03 40.09C91.34 40.84 98.34 46.73 97.66 53.23Z" id="d2jIysnSgn"></path><path d="M75.39 34.17C75.39 39.44 67.8 43.72 58.45 43.72C49.1 43.72 41.51 39.44 41.51 34.17C41.51 28.9 49.1 24.62 58.45 24.62C67.8 24.62 75.39 28.9 75.39 34.17Z" id="a7ENXXm1s"></path><path d="M79.24 60.03C79.24 65.3 71.65 69.58 62.3 69.58C52.95 69.58 45.36 65.3 45.36 60.03C45.36 54.76 52.95 50.48 62.3 50.48C71.65 50.48 79.24 54.76 79.24 60.03Z" id="f4g3in51K"></path><path d="M61.08 4.18L63.88 4.54L61.86 6.33L62.34 8.85L59.83 7.66L57.33 8.85L57.81 6.33L55.78 4.54L58.58 4.18L59.83 1.88L61.08 4.18Z" id="a9eFCwT56"></path><path d="M81.03 16.66L83.83 17.02L81.81 18.81L82.29 21.33L79.78 20.14L77.28 21.33L77.76 18.81L75.73 17.02L78.53 16.66L79.78 14.36L81.03 16.66Z" id="a3OB5t9H9J"></path><path d="M86.58 76.84C86.58 79.02 84.71 80.78 82.39 80.78C80.08 80.78 78.21 79.02 78.21 76.84C78.21 74.66 80.08 72.9 82.39 69.58C84.71 72.9 86.58 74.66 86.58 76.84Z" id="c14EcJpH5j"></path><path d="M68.2 86.04C68.2 88.22 66.33 89.98 64.02 89.98C61.71 89.98 59.83 88.22 59.83 86.04C59.83 83.86 61.71 82.1 64.02 78.78C66.33 82.1 68.2 83.86 68.2 86.04Z" id="b6ET3jBGLn"></path><path d="M30.65 69.7C30.65 71.88 28.77 73.65 26.46 73.65C24.15 73.65 22.28 71.88 22.28 69.7C22.28 67.53 24.15 65.76 26.46 62.44C28.77 65.76 30.65 67.53 30.65 69.7Z" id="d2CDY3Xav"></path><path d="M44.9 85.32C44.9 87.5 43.03 89.27 40.72 89.27C38.41 89.27 36.53 87.5 36.53 85.32C36.53 83.15 38.41 81.38 40.72 78.06C43.03 81.38 44.9 83.15 44.9 85.32Z" id="gvpdi3kvP"></path></defs><g><g><g><g><g></g><use xlink:href="#cdJjeZ2nr" opacity="1" fill="#ebebeb" fill-opacity="1"></use><g><use xlink:href="#cdJjeZ2nr" opacity="1" fill-opacity="0" stroke="#323131" stroke-width="0" stroke-opacity="1"></use></g></g><g><g></g><use xlink:href="#e3X7OeWzhB" opacity="1" fill="#9a9a9a" fill-opacity="0.98"></use></g><g><g></g><use xlink:href="#aa6EabsGf" opacity="1" fill="#9a9a9a" fill-opacity="0.98"></use></g><g><g></g><use xlink:href="#aOgfgIhXL" opacity="1" fill="#9a9a9a" fill-opacity="0.98"></use></g><g><g></g><use xlink:href="#byfgv55NH" opacity="1" fill="#9a9a9a" fill-opacity="0.98"></use></g><g><g></g><use xlink:href="#b9SZyO7vV" opacity="1" fill="#9a9a9a" fill-opacity="0.98"></use></g><g><g></g><use xlink:href="#a15liq5XSf" opacity="1" fill="#9a9a9a" fill-opacity="0.98"></use></g><g><g></g><use xlink:href="#c1hIhlGGA" opacity="1" fill="#9a9a9a" fill-opacity="0.98"></use></g><g><g></g><use xlink:href="#b6PhCL9h7" opacity="1" fill="#9a9a9a" fill-opacity="0.98"></use></g><g><g></g><use xlink:href="#a3M9NVC7ry" opacity="1" fill="#9a9a9a" fill-opacity="0.98"></use></g><g><g></g><use xlink:href="#a2LbG6tZb1" opacity="1" fill="#9a9a9a" fill-opacity="0.98"></use></g></g><g><use xlink:href="#f1LfExPdJF" opacity="1" fill="#c6c6c6" fill-opacity="1"></use></g><g><use xlink:href="#b4IPDpMmP5" opacity="1" fill="#c6c6c6" fill-opacity="1"></use></g><g><use xlink:href="#c3tcq6SZn" opacity="1" fill="#c6c6c6" fill-opacity="1"></use></g><g><use xlink:href="#d5hrB0qXVi" opacity="1" fill="#c6c6c6" fill-opacity="1"></use></g><g><use xlink:href="#b3wzWwWJem" opacity="1" fill="#c6c6c6" fill-opacity="1"></use></g><g><use xlink:href="#d2jIysnSgn" opacity="1" fill="#c6c6c6" fill-opacity="1"></use></g><g><use xlink:href="#a7ENXXm1s" opacity="1" fill="#c6c6c6" fill-opacity="1"></use></g><g><use xlink:href="#f4g3in51K" opacity="1" fill="#c6c6c6" fill-opacity="1"></use></g><g><use xlink:href="#a9eFCwT56" opacity="1" fill="#fbf73a" fill-opacity="1"></use></g><g><use xlink:href="#a3OB5t9H9J" opacity="1" fill="#fbf73a" fill-opacity="1"></use></g><g><use xlink:href="#c14EcJpH5j" opacity="1" fill="#2f6196" fill-opacity="1"></use><g><use xlink:href="#c14EcJpH5j" opacity="1" fill-opacity="0" stroke="#3b0416" stroke-width="0" stroke-opacity="1"></use></g></g><g><use xlink:href="#b6ET3jBGLn" opacity="1" fill="#2f6196" fill-opacity="1"></use><g><use xlink:href="#b6ET3jBGLn" opacity="1" fill-opacity="0" stroke="#3b0416" stroke-width="0" stroke-opacity="1"></use></g></g><g><use xlink:href="#d2CDY3Xav" opacity="1" fill="#2f6196" fill-opacity="1"></use><g><use xlink:href="#d2CDY3Xav" opacity="1" fill-opacity="0" stroke="#3b0416" stroke-width="0" stroke-opacity="1"></use></g></g><g><use xlink:href="#gvpdi3kvP" opacity="1" fill="#2f6196" fill-opacity="1"></use><g><use xlink:href="#gvpdi3kvP" opacity="1" fill-opacity="0" stroke="#3b0416" stroke-width="0" stroke-opacity="1"></use></g></g></g></g></svg>