<?xml version="1.0" encoding="UTF-8" standalone="no"?>
<!DOCTYPE svg PUBLIC "-//W3C//DTD SVG 1.1//EN" "http://www.w3.org/Graphics/SVG/1.1/DTD/svg11.dtd">
<svg version="1.1" xmlns="http://www.w3.org/2000/svg" xmlns:xlink="http://www.w3.org/1999/xlink" preserveAspectRatio="xMidYMid meet" viewBox="0 0 100 100" width="100%" height="100%"><defs><path d="M23.25 59.34C23.25 61.51 21.38 63.28 19.07 63.28C16.76 63.28 14.88 61.51 14.88 59.34C14.88 57.16 16.76 55.39 19.07 52.07C21.38 55.39 23.25 57.16 23.25 59.34Z" id="c6oZGr35j8"></path><path d="M77 60.34C77 62.52 75.13 64.28 72.82 64.28C70.5 64.28 68.63 62.52 68.63 60.34C68.63 58.16 70.5 56.4 72.82 53.08C75.13 56.4 77 58.16 77 60.34Z" id="j1lyJHNUqu"></path><path d="M32.44 78.7C32.44 80.87 30.56 82.64 28.25 82.64C25.94 82.64 24.07 80.87 24.07 78.7C24.07 76.52 25.94 74.75 28.25 71.43C30.56 74.75 32.44 76.52 32.44 78.7Z" id="d1SVZRRwEb"></path><path d="M83.4 78.22C83.4 80.4 81.52 82.17 79.21 82.17C76.9 82.17 75.03 80.4 75.03 78.22C75.03 76.05 76.9 74.28 79.21 70.96C81.52 74.28 83.4 76.05 83.4 78.22Z" id="a3ArPh4sAQ"></path><path d="M48.79 53.45L40.76 75.22L48.79 75.22L43.06 90.95L64.84 69.17L53.37 69.17L61.4 53.45L48.79 53.45Z" id="b5tEf3iO1"></path><path d="M41.86 31.66C41.86 37.42 33.64 42.1 23.53 42.1C13.41 42.1 5.2 37.42 5.2 31.66C5.2 25.89 13.41 21.22 23.53 21.22C33.64 21.22 41.86 25.89 41.86 31.66Z" id="a18YPuUBqw"></path><path d="M52.31 22.61C52.31 28.37 44.1 33.05 33.98 33.05C23.86 33.05 15.65 28.37 15.65 22.61C15.65 16.84 23.86 12.16 33.98 12.16C44.1 12.16 52.31 16.84 52.31 22.61Z" id="f1xdEfGM2h"></path><path d="M75.36 34.72C75.36 40.48 67.15 45.16 57.03 45.16C46.92 45.16 38.7 40.48 38.7 34.72C38.7 28.96 46.92 24.28 57.03 24.28C67.15 24.28 75.36 28.96 75.36 34.72Z" id="a1EQLS7ofN"></path><path d="M87.68 23.32C87.68 29.09 79.46 33.76 69.35 33.76C59.23 33.76 51.02 29.09 51.02 23.32C51.02 17.56 59.23 12.88 69.35 12.88C79.46 12.88 87.68 17.56 87.68 23.32Z" id="k4TDzkrNxh"></path><path d="M55.21 43.49C55.21 49.25 47 53.93 36.88 53.93C26.77 53.93 18.55 49.25 18.55 43.49C18.55 37.73 26.77 33.05 36.88 33.05C47 33.05 55.21 37.73 55.21 43.49Z" id="awXAUqVws"></path><path d="M91.07 37.73C90.33 44.85 81.55 49.95 71.48 49.13C61.41 48.31 53.83 41.88 54.57 34.77C55.3 27.65 64.08 22.55 74.15 23.37C84.22 24.19 91.8 30.62 91.07 37.73Z" id="a7BgrzkZC"></path><path d="M66.97 17.03C66.97 22.79 58.75 27.47 48.64 27.47C38.52 27.47 30.31 22.79 30.31 17.03C30.31 11.27 38.52 6.59 48.64 6.59C58.75 6.59 66.97 11.27 66.97 17.03Z" id="bKK5RNvt"></path><path d="M71.13 45.16C71.13 50.92 62.92 55.6 52.8 55.6C42.68 55.6 34.47 50.92 34.47 45.16C34.47 39.4 42.68 34.72 52.8 34.72C62.92 34.72 71.13 39.4 71.13 45.16Z" id="d4GPbSzU51"></path></defs><g><g><g><use xlink:href="#c6oZGr35j8" opacity="1" fill="#2f6196" fill-opacity="1"></use><g><use xlink:href="#c6oZGr35j8" opacity="1" fill-opacity="0" stroke="#3b0416" stroke-width="0" stroke-opacity="1"></use></g></g><g><use xlink:href="#j1lyJHNUqu" opacity="1" fill="#2f6196" fill-opacity="1"></use><g><use xlink:href="#j1lyJHNUqu" opacity="1" fill-opacity="0" stroke="#3b0416" stroke-width="0" stroke-opacity="1"></use></g></g><g><use xlink:href="#d1SVZRRwEb" opacity="1" fill="#2f6196" fill-opacity="1"></use><g><use xlink:href="#d1SVZRRwEb" opacity="1" fill-opacity="0" stroke="#3b0416" stroke-width="0" stroke-opacity="1"></use></g></g><g><use xlink:href="#a3ArPh4sAQ" opacity="1" fill="#2f6196" fill-opacity="1"></use><g><use xlink:href="#a3ArPh4sAQ" opacity="1" fill-opacity="0" stroke="#3b0416" stroke-width="0" stroke-opacity="1"></use></g></g><g><use xlink:href="#b5tEf3iO1" opacity="1" fill="#fbf73a" fill-opacity="1"></use></g><g><use xlink:href="#a18YPuUBqw" opacity="1" fill="#908f8f" fill-opacity="1"></use></g><g><use xlink:href="#f1xdEfGM2h" opacity="1" fill="#908f8f" fill-opacity="1"></use></g><g><use xlink:href="#a1EQLS7ofN" opacity="1" fill="#908f8f" fill-opacity="1"></use></g><g><use xlink:href="#k4TDzkrNxh" opacity="1" fill="#908f8f" fill-opacity="1"></use></g><g><use xlink:href="#awXAUqVws" opacity="1" fill="#908f8f" fill-opacity="1"></use></g><g><use xlink:href="#a7BgrzkZC" opacity="1" fill="#908f8f" fill-opacity="1"></use></g><g><use xlink:href="#bKK5RNvt" opacity="1" fill="#908f8f" fill-opacity="1"></use></g><g><use xlink:href="#d4GPbSzU51" opacity="1" fill="#908f8f" fill-opacity="1"></use></g></g></g></svg>