<?xml version="1.0" encoding="UTF-8" standalone="no"?>
<!DOCTYPE svg PUBLIC "-//W3C//DTD SVG 1.1//EN" "http://www.w3.org/Graphics/SVG/1.1/DTD/svg11.dtd">
<svg version="1.1" xmlns="http://www.w3.org/2000/svg" xmlns:xlink="http://www.w3.org/1999/xlink" preserveAspectRatio="xMidYMid meet" viewBox="0 0 100 100" width="100%" height="100%"><defs><path d="M58.02 49.64C58.02 54.72 54.08 58.84 49.23 58.84C44.38 58.84 40.44 54.72 40.44 49.64C40.44 44.56 44.38 40.44 49.23 40.44C54.08 40.44 58.02 44.56 58.02 49.64Z" id="a46ynYueus"></path><path d="M46.84 49.4L51.61 49.4L51.61 86.04L46.84 86.04L46.84 49.4Z" id="ae05AA6n"></path><path d="M83.52 47.94L83.52 53.07L49.23 53.07L49.23 47.94L83.52 47.94Z" id="b2UMqKmC92"></path><path d="M50.23 47.94L50.23 53.07L15.93 53.07L15.93 47.94L50.23 47.94Z" id="gZxqvQD1N"></path><path d="M83.52 60.14L80.11 63.72L70.56 53.22L73.97 49.64L83.52 60.14Z" id="b85K8ue7R"></path><path d="M28.9 48.15L25.48 51.73L15.93 41.23L19.35 37.65L28.9 48.15Z" id="a1SJlKEj2X"></path><path d="M61.17 82.46L57.75 86.04L48.2 75.53L51.62 71.95L61.17 82.46Z" id="aetdrde9i"></path><path d="M46.84 13L51.61 13L51.61 49.64L46.84 49.64L46.84 13Z" id="b50dez4Fj"></path><path d="M51.25 23.51L47.83 27.09L38.28 16.58L41.7 13L51.25 23.51Z" id="b4h448XR5p"></path><path d="M50.2 26.97L46.84 23.32L56.56 13L59.92 16.65L50.2 26.97Z" id="a6XKTKpPv"></path><path d="M73.8 53.07L70.44 49.42L80.17 39.1L83.52 42.75L73.8 53.07Z" id="c3vdX6TNxa"></path><path d="M18.53 62.28L15.6 58.23L26.41 49.24L29.34 53.3L18.53 62.28Z" id="b3ApVhb2X0"></path><path d="M41.53 85.01L38.17 81.36L47.89 71.04L51.25 74.69L41.53 85.01Z" id="a3Bkv94w4s"></path><path d="M53.78 49.64C53.78 52.31 51.74 54.47 49.23 54.47C46.71 54.47 44.67 52.31 44.67 49.64C44.67 46.97 46.71 44.8 49.23 44.8C51.74 44.8 53.78 46.97 53.78 49.64Z" id="bxI99zl5G"></path><path d="M23.45 79.08L20.23 75.29L43.09 52.86L46.31 56.64L23.45 79.08Z" id="bIBC9lDwq"></path><path d="M27.7 68.49L32.47 68.79L31.69 83.44L26.92 83.15L27.7 68.49Z" id="d2CkBFUqzm"></path><path d="M30.79 66.99L30.55 72.11L16.89 71.37L17.14 66.25L30.79 66.99Z" id="b5a5yKpOK"></path><path d="M75.68 20.25L78.9 24.04L56.04 46.47L52.82 42.68L75.68 20.25Z" id="e4HV0LBLOz"></path><path d="M71.43 30.83L66.66 30.54L67.44 15.89L72.21 16.18L71.43 30.83Z" id="a3hDFO7bF6"></path><path d="M68.34 32.33L68.58 27.21L82.23 27.96L81.99 33.08L68.34 32.33Z" id="c1lrjQPCYP"></path><path d="M76.5 74.61L73.24 78.36L50.62 55.65L53.88 51.9L76.5 74.61Z" id="c8RyFtSXD"></path><path d="M66.34 70.9L66.24 65.77L79.91 65.46L80.01 70.58L66.34 70.9Z" id="cvTQ1dWg8"></path><path d="M64.71 67.71L69.48 67.56L69.86 82.24L65.09 82.38L64.71 67.71Z" id="b3kgjK9tEk"></path><path d="M21.51 23.78L24.88 20.15L46.84 43.59L43.47 47.22L21.51 23.78Z" id="a3ecajSovb"></path><path d="M31.56 27.83L31.52 32.96L17.85 32.82L17.89 27.69L31.56 27.83Z" id="g1glXkKuaU"></path><path d="M33.1 31.07L28.33 31.06L28.37 16.38L33.14 16.39L33.1 31.07Z" id="b9671fAMq"></path></defs><g><g><g><use xlink:href="#a46ynYueus" opacity="1" fill="#ebebeb" fill-opacity="1"></use></g><g><use xlink:href="#ae05AA6n" opacity="1" fill="#ebebeb" fill-opacity="1"></use></g><g><use xlink:href="#b2UMqKmC92" opacity="1" fill="#ebebeb" fill-opacity="1"></use></g><g><use xlink:href="#gZxqvQD1N" opacity="1" fill="#ebebeb" fill-opacity="1"></use></g><g><use xlink:href="#b85K8ue7R" opacity="1" fill="#ebebeb" fill-opacity="1"></use></g><g><use xlink:href="#a1SJlKEj2X" opacity="1" fill="#ebebeb" fill-opacity="1"></use></g><g><use xlink:href="#aetdrde9i" opacity="1" fill="#ebebeb" fill-opacity="1"></use></g><g><g><use xlink:href="#b50dez4Fj" opacity="1" fill="#ebebeb" fill-opacity="1"></use></g><g><use xlink:href="#b4h448XR5p" opacity="1" fill="#ebebeb" fill-opacity="1"></use></g><g><use xlink:href="#a6XKTKpPv" opacity="1" fill="#ebebeb" fill-opacity="1"></use></g></g><g><use xlink:href="#c3vdX6TNxa" opacity="1" fill="#ebebeb" fill-opacity="1"></use></g><g><use xlink:href="#b3ApVhb2X0" opacity="1" fill="#ebebeb" fill-opacity="1"></use></g><g><use xlink:href="#a3Bkv94w4s" opacity="1" fill="#ebebeb" fill-opacity="1"></use></g><g><use xlink:href="#bxI99zl5G" opacity="0" fill="#ebebeb" fill-opacity="0"></use></g><g><g><use xlink:href="#bIBC9lDwq" opacity="1" fill="#ebebeb" fill-opacity="1"></use></g><g><use xlink:href="#d2CkBFUqzm" opacity="1" fill="#ebebeb" fill-opacity="1"></use></g><g><use xlink:href="#b5a5yKpOK" opacity="1" fill="#ebebeb" fill-opacity="1"></use></g></g><g><g><use xlink:href="#e4HV0LBLOz" opacity="1" fill="#ebebeb" fill-opacity="1"></use></g><g><use xlink:href="#a3hDFO7bF6" opacity="1" fill="#ebebeb" fill-opacity="1"></use></g><g><use xlink:href="#c1lrjQPCYP" opacity="1" fill="#ebebeb" fill-opacity="1"></use></g></g><g><g><use xlink:href="#c8RyFtSXD" opacity="1" fill="#ebebeb" fill-opacity="1"></use></g><g><use xlink:href="#cvTQ1dWg8" opacity="1" fill="#ebebeb" fill-opacity="1"></use></g><g><use xlink:href="#b3kgjK9tEk" opacity="1" fill="#ebebeb" fill-opacity="1"></use></g></g><g><g><use xlink:href="#a3ecajSovb" opacity="1" fill="#ebebeb" fill-opacity="1"></use></g><g><use xlink:href="#g1glXkKuaU" opacity="1" fill="#ebebeb" fill-opacity="1"></use></g><g><use xlink:href="#b9671fAMq" opacity="1" fill="#ebebeb" fill-opacity="1"></use></g></g></g></g></svg>