<?xml version="1.0" encoding="UTF-8" standalone="no"?>
<!DOCTYPE svg PUBLIC "-//W3C//DTD SVG 1.1//EN" "http://www.w3.org/Graphics/SVG/1.1/DTD/svg11.dtd">
<svg version="1.1" xmlns="http://www.w3.org/2000/svg" xmlns:xlink="http://www.w3.org/1999/xlink" preserveAspectRatio="xMidYMid meet" viewBox="0 0 100 100" width="100%" height="100%"><defs><path d="M8.47 16.63L89.45 16.63L89.45 22.56L8.47 22.56L8.47 16.63Z" id="fhmiLOJNF"></path><path d="M8.47 28.28L89.45 28.28L89.45 34.21L8.47 34.21L8.47 28.28Z" id="ffOLsnZy9"></path><path d="M8.47 39.48L89.45 39.48L89.45 45.41L8.47 45.41L8.47 39.48Z" id="aCIGZ3OUq"></path><path d="M8.47 50.68L89.45 50.68L89.45 56.62L8.47 56.62L8.47 50.68Z" id="f288sAVRFO"></path><path d="M8.47 61.82L89.45 61.82L89.45 67.75L8.47 67.75L8.47 61.82Z" id="b18OTqZ6B2"></path><path d="M8.47 72.79L89.45 72.79L89.45 78.72L8.47 78.72L8.47 72.79Z" id="b2aH3koUCV"></path></defs><g><g><g><use xlink:href="#fhmiLOJNF" opacity="1" fill="#ebebeb" fill-opacity="1"></use></g><g><use xlink:href="#ffOLsnZy9" opacity="1" fill="#ebebeb" fill-opacity="1"></use></g><g><use xlink:href="#aCIGZ3OUq" opacity="1" fill="#ebebeb" fill-opacity="1"></use></g><g><use xlink:href="#f288sAVRFO" opacity="1" fill="#ebebeb" fill-opacity="1"></use></g><g><use xlink:href="#b18OTqZ6B2" opacity="1" fill="#ebebeb" fill-opacity="1"></use></g><g><use xlink:href="#b2aH3koUCV" opacity="1" fill="#ebebeb" fill-opacity="1"></use></g></g></g></svg>